<svg xmlns="http://www.w3.org/2000/svg" viewBox="0 0 64 64">
  <rect width="64" height="64" rx="17" fill="#f4f8ff"/>
  <g fill="none" stroke="#0d67ed" stroke-linecap="round" stroke-linejoin="round">
    <path d="M10 32C10 17.1 20 10 32 10s22 7.1 22 22-10 22-22 22S10 46.9 10 32Z" opacity=".58" stroke-width="1.8"/>
    <path d="m17 18 15 14 15-14M10 32h44M17 46l15-14 15 14" opacity=".24" stroke-width="1.4"/>
    <circle cx="32" cy="32" r="7" opacity=".34" stroke-width="1.5"/>
  </g>
  <g fill="#0d67ed">
    <circle cx="32" cy="32" r="3.7"/>
    <circle cx="32" cy="10" r="2.5"/><circle cx="47" cy="18" r="2.5"/>
    <circle cx="54" cy="32" r="2.5"/><circle cx="47" cy="46" r="2.5"/>
    <circle cx="32" cy="54" r="2.5"/><circle cx="17" cy="46" r="2.5"/>
    <circle cx="10" cy="32" r="2.5"/><circle cx="17" cy="18" r="2.5"/>
  </g>
</svg>
